# xmcd
#
# Track frame offsets: 
#        150
#        10545
#        24044
#        35138
#        43209
#        57278
#        69566
#        80465
#        91252
#        102584
#        107169
#
# Disc length: 1855 seconds
#
# Revision: 0
# Processed by: cddbd v1.5.2PL0 Copyright (c) Steve Scherf et al.
# Submitted via: ExactAudioCopyFreeDBPlugin 1.0
#
DISCID=86073d0b
DTITLE=Bed Wettin' Bad Boys - Rot
DYEAR=2017
DGENRE=Indie Rock
TTITLE0=Away
TTITLE1=Stunned
TTITLE2=Plastic Tears
TTITLE3=Expanding Horizons
TTITLE4=Work Again
TTITLE5=Victoria
TTITLE6=Thing Called Love
TTITLE7=Device
TTITLE8=Company
TTITLE9=Rot
TTITLE10=Turn The Page
EXTD=
EXTT0=
EXTT1=
EXTT2=
EXTT3=
EXTT4=
EXTT5=
EXTT6=
EXTT7=
EXTT8=
EXTT9=
EXTT10=
PLAYORDER=
